<svg xmlns="http://www.w3.org/2000/svg" width="21.993" height="22" viewBox="0 0 21.993 22">
  <g id="pen" transform="translate(0 0)">
    <path id="Path_91" data-name="Path 91" d="M.482,358.608a.644.644,0,0,0,.619.821.6.6,0,0,0,.176-.026l6.007-1.714L2.2,352.6Zm0,0" transform="translate(-0.437 -337.451)" fill="#fff"/>
    <path id="Path_92" data-name="Path 92" d="M.663,358.587a.661.661,0,0,1-.636-.846L1.755,351.7l5.139,5.139-6.05,1.723a.65.65,0,0,1-.18.026Zm1.109-6.811L.066,357.749a.62.62,0,0,0,.6.791.6.6,0,0,0,.172-.026l5.973-1.706Zm0,0" transform="translate(0 -336.587)" fill="#fff"/>
    <path id="Path_93" data-name="Path 93" d="M346.16,3.8l-2.729-2.729a1.94,1.94,0,0,0-2.737,0l-1.366,1.366,5.461,5.461,1.366-1.366a1.94,1.94,0,0,0,0-2.729Zm0,0" transform="translate(-324.747 -0.479)" fill="#fff"/>
    <path id="Path_94" data-name="Path 94" d="M344.221,7.442,338.73,1.95,340.109.571a1.95,1.95,0,0,1,2.759,0L345.6,3.3a1.951,1.951,0,0,1,0,2.759ZM338.79,1.95l5.431,5.431,1.349-1.349a1.909,1.909,0,0,0,0-2.7L342.842.6a1.914,1.914,0,0,0-2.7,0Zm0,0" transform="translate(-324.175)" fill="#fff"/>
    <path id="Path_95" data-name="Path 95" d="M57.8,77.78l11.19-11.19,5.463,5.463-11.19,11.19Zm0,0" transform="translate(-55.321 -63.729)" fill="#fff"/>
    <path id="Path_96" data-name="Path 96" d="M62.528,82.613l-5.5-5.5L68.255,65.9l5.491,5.491Zm-5.431-5.5,5.431,5.431L73.687,71.389l-5.431-5.431Zm0,0" transform="translate(-54.581 -63.067)" fill="#fff"/>
  </g>
</svg>
